{"title":"Britney Spears - I Wanna Go HD 1080p By Haunting Summer","uid":6493965,"size":123701596,"categoryP":"video","categoryS":"music_videos","magnet":"?xt=urn:btih:c7c3e81d1dca981051b6b1b09f0335ba8be360c4&amp;dn=Britney+Spears+-+I+Wanna+Go+HD+1080p+By+Haunting+Summer&amp;tr=udp%3A%2F%2Ftracker.openbittorrent.com%3A80&amp;tr=udp%3A%2F%2Fopen.demonii.com%3A1337&amp;tr=udp%3A%2F%2Ftracker.coppersurfer.tk%3A6969&amp;tr=udp%3A%2F%2Fexodus.desync.com%3A6969","seeders":0,"leechers":1,"uploader":"HaUnTiNg.SuMMeR","files":-1,"time":1308999110,"description":"=================== Britney Spears - I Wanna Go HD 1080p =======================\n\nFormat                           : MPEG-4\nFormat profile                   : Base Media / Version 2\nCodec ID                         : mp42\nFile size                        : 118 MiB\nDuration                         : 4mn 33s\nOverall bit rate                 : 3 613 Kbps\nEncoded date                     : UTC 2011-06-20 12:02:04\nTagged date                      : UTC 2011-06-20 12:02:04\ngsst                             : 0\ngstd                             : 273931\ngssd                             : BCA9FD844HH1308768426383371\ngshh                   \n\nVideo\nID                               : 1\nFormat                           : AVC\nFormat/Info                      : Advanced Video Codec\nFormat profile                   : &lt;a class=&quot;__cf_email__&quot; href=&quot;/cdn-cgi/l/email-protection&quot; data-cfemail=&quot;531b3a343b131f677d63&quot;&gt;[email&amp;#160;protected]&lt;/a&gt;&lt;script cf-hash='f9e31' type=&quot;text/javascript&quot;&gt;\n/* &lt;![CDATA[ */!function(){try{var t=&quot;currentScript&quot;in document?document.currentScript:function(){for(var t=document.getElementsByTagName(&quot;script&quot;),e=t.length;e--;)if(t[e].getAttribute(&quot;cf-hash&quot;))return t[e]}();if(t&amp;&amp;t.previousSibling){var e,r,n,i,c=t.previousSibling,a=c.getAttribute(&quot;data-cfemail&quot;);if(a){for(e=&quot;&quot;,r=parseInt(a.substr(0,2),16),n=2;a.length-n;n+=2)i=parseInt(a.substr(n,2),16)^r,e+=String.fromCharCode(i);e=document.createTextNode(e),c.parentNode.replaceChild(e,c)}}}catch(u){}}();/* ]]&gt; */&lt;/script&gt;\nFormat settings, CABAC           : Yes\nFormat settings, ReFrames        : 1 frame\nCodec ID                         : avc1\nCodec ID/Info                    : Advanced Video Coding\nDuration                         : 4mn 33s\nBit rate mode                    : Variable\nBit rate                         : 3 456 Kbps\nMaximum bit rate                 : 10.0 Mbps\nWidth                            : 1 920 pixels\nHeight                           : 1 080 pixels\nDisplay aspect ratio             : 16:9\nFrame rate mode                  : Variable\nFrame rate                       : 23.976 fps\nMinimum frame rate               : 17.241 fps\nMaximum frame rate               : 24.390 fps\nColor space                      : YUV\nChroma subsampling               : 4:2:0\nBit depth                        : 8 bits\nScan type                        : Progressive\nBits/(Pixel*Frame)               : 0.070\nStream size                      : 113 MiB (96%)\nTagged date                      : UTC 2011-06-20 12:02:06\n\nAudio\nID                               : 2\nFormat                           : AAC\nFormat/Info                      : Advanced Audio Codec\nFormat version                   : Version 4\nFormat profile                   : LC\nFormat settings, SBR             : No\nCodec ID                         : 40\nDuration                         : 4mn 33s\nBit rate mode                    : Variable\nBit rate                         : 151 Kbps\nMaximum bit rate                 : 212 Kbps\nChannel(s)                       : 2 channels\nChannel positions                : Front: L R\nSampling rate                    : 44.1 KHz\nStream size                      : 4.94 MiB\n\n========================== SCREEN SHOTS===================================\n\n                   &lt;a href=&quot; http://bayimg.com/EAIMgAadm&quot; rel=&quot;nofollow&quot; target=&quot;_NEW&quot;&gt; http://bayimg.com/EAIMgAadm&lt;/a&gt; \n\n\n============================ FOLLOW ME ON TWEETER AND FACEBOOK =================\n\n           http :///#!/ haunting_summer\n\n  http: // www. facebook. com/ pages/ HaUnTiNgSuMMeR-ToRrEnTs/ 192812490771363\n\n=================================================================================\n\n--------------- PLZ RATE +/- THE QUALITY N COMMENT IF POSSIBLE -----------------\n","torrent":{"xt":"urn:btih:c7c3e81d1dca981051b6b1b09f0335ba8be360c4","amp;dn":"Britney+Spears+-+I+Wanna+Go+HD+1080p+By+Haunting+Summer","amp;tr":["udp%3A%2F%2Ftracker.openbittorrent.com%3A80","udp%3A%2F%2Fopen.demonii.com%3A1337","udp%3A%2F%2Ftracker.coppersurfer.tk%3A6969","udp%3A%2F%2Fexodus.desync.com%3A6969"],"infoHash":"c7c3e81d1dca981051b6b1b09f0335ba8be360c4","infoHashBuffer":{"type":"Buffer","data":[199,195,232,29,29,202,152,16,81,182,177,176,159,3,53,186,139,227,96,196]},"announce":[],"urlList":[]}}